<svg version="1" xmlns="http://www.w3.org/2000/svg" width="682.667" height="682.667" viewBox="0 0 512.000000 512.000000"><path d="M243.9 34.3c-28.5 9.9-33.9 47.9-9.3 65.3 13.1 9.3 31.9 8.9 44.3-.9 13.9-11 18.1-30.4 10.2-46.1-8.6-16.8-27.6-24.5-45.2-18.3zM209 116.1c-11.7 2.3-24 11.7-30.4 23.2-6.6 12-6.6 11.3-6.3 81.2l.2 63 2.3 3.3c6.3 8.7 19.1 8.7 25.4 0l2.3-3.3.3-55.8.3-55.7h5.9l.2 146.7c.3 141.3.4 146.9 2.2 150.2 4.3 8 13.9 12.4 23 10.7 8-1.5 16-9.9 17-17.7.3-1.9.5-40.6.5-86.2l.1-82.7h8l.1 82.7c0 45.6.2 84.3.5 86.2.6 5 4.9 11.8 9.2 14.6 8.2 5.3 19.6 4.1 26.6-2.9 2.4-2.3 4.7-5.9 5.4-8.2.9-3.2 1.2-37.2 1.2-148.8V172h5l.1 54c.1 29.7.3 54.4.4 55 .1.5.3 1.6.4 2.4 0 .7 1.6 3 3.4 4.9 6.5 7.2 18.6 6.6 24.5-1.1l2.7-3.5.2-64.1.2-64.1-2.3-6.8c-5.8-17-19.6-29.8-35-32.6-7.2-1.3-86.9-1.3-93.6 0z"/></svg>